<?xml version="1.0" encoding="UTF-8"?>
<svg version="1.1" width="1000" height="245" xmlns="http://www.w3.org/2000/svg" xmlns:xlink="http://www.w3.org/1999/xlink">
  <title>Logo of piwigo.com using black letters</title>
  <metadata  xmlns:rdf="http://www.w3.org/1999/02/22-rdf-syntax-ns#">
    <rdf:RDF xmlns:dc="http://purl.org/dc/elements/1.1/">
      <dc:format>image/svg+xml</dc:format>
      <dc:type rdf:resource="http://purl.org/dc/dcmitype/StillImage"/>
      <dc:source>https://github.com/Piwigo/Piwigo-logos</dc:source>
      <dc:creator>Jimmy</dc:creator>
      <dc:contributor>Piwigo contributors</dc:contributor>
      <dc:date>2008</dc:date>
      <dc:language>fr</dc:language>
      <dc:rights>GPLv2</dc:rights>
    </rdf:RDF>
  </metadata>
  <g id="camera" transform="scale(.5 .5) translate(1268 20)">
    <path fill="#ff2f63" d="m0,70c0-11.046,8.955-20,20-20h305l10-35c1.719-7.458,7.541-13.282,15-15h245 c7.459,1.718,13.281,7.542,15,15l10,35h75c11.045,0,20,8.954,20,20v360c0,11.047-8.955,20-20,20H20c-11.045,0-20-8.953-20-20V70"/>
    <path fill="#4e4e4e" d="m382,24c0-2.762,2.238-5,5-5h170c2.762,0,5,2.238,5,5v52c0,2.762-2.238,5-5,5H387c-2.762,0-5-2.238-5-5V24"/>
    <path fill="#ffffff" d="m389.5,30c0-2.762,2.238-5,5-5h155c2.762,0,5,2.238,5,5v40c0,2.762-2.238,5-5,5h-155c-2.762,0-5-2.238-5-5 V30"/>
    <ellipse fill="#ffffff" cx="200" cy="250" rx="150" ry="150"/>
    <ellipse fill="#4e4e4e" cx="200" cy="250" rx="123" ry="123"/>
    <ellipse fill="#ffffff" cx="200" cy="250" rx="100" ry="100"/>
    <ellipse fill="#4e4e4e" cx="190" cy="260" rx="100" ry="100"/>
  </g>
  <g stroke="#fff" stroke-width="8" opacity=".5">
   <g id="text">
    <path d="m105.52,61.22c0,13.176-3.99,23.498-11.97,30.971c-8.235,7.854-19.888,11.779-34.96,11.779H28.76V168H12.42 V19.8h49.02c14.185,0,25.27,4.181,33.25,12.54C101.91,39.94,105.52,49.567,105.52,61.22z M89.37,61.22 c0-7.6-2.345-13.994-7.03-19.189c-5.32-5.7-12.667-8.55-22.04-8.55H28.76v56.81h30.97c9.88,0,17.415-2.85,22.61-8.55 C87.025,76.548,89.37,69.708,89.37,61.22z"/>
    <path d="m197.856,168h-39.52v-12.16h11.21V67.49h16.15v88.35h12.16V168z M187.786,39.94 c0,2.787-1.015,5.195-3.04,7.22c-2.027,2.027-4.435,3.04-7.22,3.04c-2.788,0-5.163-1.013-7.125-3.04 c-1.965-2.024-2.945-4.433-2.945-7.22c0-2.785,0.979-5.192,2.945-7.221c1.962-2.024,4.337-3.04,7.125-3.04 c2.912,0,5.35,0.983,7.315,2.945C186.803,34.59,187.786,37.027,187.786,39.94z"/>
    <path d="m386.903,67.3L356.883,168h-15.58l-21.47-75.24h-0.76l-3.42,13.3L297.604,168h-15.391l-30.78-100.7h16.53 l21.66,81.32h0.57l2.85-12.54l18.811-68.78h15.199l21.66,81.32h0.57l2.85-12.54l18.811-68.78H386.903z"/>
    <path d="m479.809,168h-39.521v-12.16h11.21V67.49h16.15v88.35h12.16V168z M469.738,39.94 c0,2.787-1.015,5.195-3.04,7.22c-2.027,2.027-4.436,3.04-7.22,3.04c-2.788,0-5.163-1.013-7.125-3.04 c-1.966-2.024-2.945-4.433-2.945-7.22c0-2.785,0.979-5.192,2.945-7.221c1.962-2.024,4.337-3.04,7.125-3.04 c2.912,0,5.35,0.983,7.315,2.945C468.756,34.59,469.738,37.027,469.738,39.94z"/>
    <path d="m625.536,190.8c0,10.893-4.561,19.063-13.681,24.51c-7.728,4.561-17.925,6.841-30.59,6.841 c-12.795,0-23.056-2.28-30.78-6.841c-9.12-5.447-13.68-13.555-13.68-24.319c0-10.26,4.114-18.115,12.35-23.561 c-4.055-6.08-6.08-12.284-6.08-18.62c0-7.092,2.28-13.3,6.841-18.619c-6.716-6.965-10.07-15.771-10.07-26.41 c0-11.145,3.64-20.235,10.925-27.266c7.282-7.029,16.625-10.545,28.025-10.545c6.965,0,13.234,1.396,18.81,4.181 c2.024-4.813,4.181-8.36,6.46-10.641c4.181-4.432,10.133-7.282,17.86-8.55v14.06c-3.8,0-7.253,1.206-10.355,3.61 c-3.104,2.408-4.845,4.878-5.225,7.41c7.853,6.715,11.78,15.96,11.78,27.74c0,11.02-3.705,20.045-11.115,27.075 c-7.41,7.029-16.815,10.545-28.215,10.545c-6.588,0-12.605-1.265-18.05-3.801c-2.536,3.296-3.801,6.905-3.801,10.83 c0,5.448,1.772,9.945,5.32,13.49c5.952-1.52,12.285-2.28,19-2.28c12.665,0,22.862,2.28,30.59,6.841 C620.976,171.925,625.536,180.032,625.536,190.8z M610.905,190.8c0-12.54-9.88-18.81-29.64-18.81c-19.888,0-29.83,6.332-29.83,19 c0,12.54,9.942,18.81,29.83,18.81C601.025,209.8,610.905,203.465,610.905,190.8z M602.166,103.78c0-17.101-7.79-25.65-23.37-25.65 c-15.455,0-23.181,8.55-23.181,25.65c0,16.975,7.726,25.46,23.181,25.46C594.376,129.24,602.166,120.755,602.166,103.78z"/>
    <path d="m33.104,181.53l-9.454,16.717V210h-3.175v-11.753l-9.417-16.717h3.613l7.264,13.176h0.255l7.264-13.176 H33.104z"/>
    <path d="m58.728,195.765c0,4.818-1.278,8.541-3.833,11.169c-2.19,2.239-4.891,3.358-8.103,3.358 c-3.237,0-5.95-1.119-8.14-3.358c-2.58-2.604-3.869-6.326-3.869-11.169c0-4.842,1.29-8.564,3.869-11.169 c2.19-2.238,4.903-3.357,8.14-3.357c3.212,0,5.913,1.119,8.103,3.357C57.45,187.2,58.728,190.923,58.728,195.765z M55.442,195.747 c0-3.28-0.693-5.989-2.081-8.127c-1.558-2.43-3.759-3.645-6.606-3.645s-5.049,1.215-6.606,3.645 c-1.387,2.138-2.081,4.847-2.081,8.127s0.693,5.989,2.081,8.127c1.557,2.454,3.759,3.681,6.606,3.681s5.049-1.227,6.606-3.681 C54.749,201.736,55.442,199.027,55.442,195.747z"/>
    <path d="m85.189,199.926c0,3.626-1.071,6.352-3.212,8.176c-1.752,1.46-3.967,2.19-6.643,2.19 c-2.726,0-4.952-0.73-6.68-2.19c-2.117-1.8-3.175-4.525-3.175-8.176V181.53h3.139v18.359c0,2.773,0.718,4.817,2.154,6.132 c1.168,1.071,2.688,1.606,4.563,1.606c1.825,0,3.309-0.512,4.453-1.533c1.484-1.338,2.227-3.406,2.227-6.205V181.53h3.176V199.926z"/>
    <path d="m111.761,210h-3.139l-6.606-12.665h-5.84V210H93v-28.47h9.563c2.604,0,4.66,0.754,6.168,2.263 c1.411,1.387,2.117,3.176,2.117,5.365c0,4.088-1.959,6.692-5.876,7.812L111.761,210z M107.637,189.268 c0-1.46-0.451-2.651-1.351-3.576c-0.998-1.022-2.409-1.533-4.234-1.533h-5.876v10.512h5.986 C105.812,194.67,107.637,192.869,107.637,189.268z"/>
    <path d="m147.969,195.765c0,4.818-1.278,8.541-3.833,11.169c-2.19,2.239-4.891,3.358-8.103,3.358 c-3.237,0-5.95-1.119-8.14-3.358c-2.58-2.604-3.869-6.326-3.869-11.169c0-4.842,1.29-8.564,3.869-11.169 c2.19-2.238,4.903-3.357,8.14-3.357c3.212,0,5.913,1.119,8.103,3.357C146.691,187.2,147.969,190.923,147.969,195.765z M144.684,195.747c0-3.28-0.693-5.989-2.081-8.127c-1.558-2.43-3.759-3.645-6.606-3.645s-5.049,1.215-6.606,3.645 c-1.387,2.138-2.081,4.847-2.081,8.127s0.693,5.989,2.081,8.127c1.557,2.454,3.759,3.681,6.606,3.681s5.049-1.227,6.606-3.681 C143.99,201.736,144.684,199.027,144.684,195.747z"/>
    <path d="m184.76,181.53L178.227,210h-3.504l-6.132-24.017h-0.219l-0.475,2.227L162.24,210h-3.541l-6.534-28.47 h3.029l5.475,24.309h0.219l0.365-2.044l5.658-22.265h3.103l6.059,24.309h0.219l0.365-2.044l5.11-22.265H184.76z"/>
    <path d="m209.324,210h-4.015l-12.191-25.148h-0.292V210h-2.774v-28.47h4.453l11.826,24.71h0.256v-24.71h2.737V210z"/>
    <path d="m243.487,189.487c0,2.53-0.767,4.514-2.299,5.949c-1.582,1.509-3.821,2.263-6.716,2.263h-5.73V210h-3.139 v-28.47h9.417c2.725,0,4.854,0.803,6.387,2.409C242.794,185.399,243.487,187.248,243.487,189.487z M240.385,189.487 c0-1.46-0.45-2.688-1.351-3.687c-1.022-1.096-2.433-1.643-4.234-1.643h-6.059v10.913h5.95c1.898,0,3.345-0.547,4.343-1.643 C239.935,192.432,240.385,191.117,240.385,189.487z"/>
    <path d="m268.891,210h-3.139v-13.286h-12.885V210h-3.175v-28.47h3.175v12.446h12.885V181.53h3.139V210z"/>
    <path d="m300.316,195.765c0,4.818-1.278,8.541-3.833,11.169c-2.19,2.239-4.891,3.358-8.103,3.358 c-3.237,0-5.95-1.119-8.14-3.358c-2.58-2.604-3.869-6.326-3.869-11.169c0-4.842,1.29-8.564,3.869-11.169 c2.19-2.238,4.903-3.357,8.14-3.357c3.212,0,5.913,1.119,8.103,3.357C299.039,187.2,300.316,190.923,300.316,195.765z M297.031,195.747c0-3.28-0.693-5.989-2.081-8.127c-1.558-2.43-3.759-3.645-6.606-3.645s-5.049,1.215-6.606,3.645 c-1.387,2.138-2.081,4.847-2.081,8.127s0.693,5.989,2.081,8.127c1.557,2.454,3.759,3.681,6.606,3.681s5.049-1.227,6.606-3.681 C296.338,201.736,297.031,199.027,297.031,195.747z"/>
    <path d="m322.472,184.158h-8.322V210h-3.139v-25.842h-8.359v-2.628h19.82V184.158z"/>
    <path d="m348.386,195.765c0,4.818-1.277,8.541-3.832,11.169c-2.19,2.239-4.891,3.358-8.104,3.358 c-3.236,0-5.949-1.119-8.139-3.358c-2.58-2.604-3.869-6.326-3.869-11.169c0-4.842,1.289-8.564,3.869-11.169 c2.189-2.238,4.902-3.357,8.139-3.357c3.213,0,5.913,1.119,8.104,3.357C347.108,187.2,348.386,190.923,348.386,195.765z M345.102,195.747c0-3.28-0.694-5.989-2.081-8.127c-1.558-2.43-3.76-3.645-6.606-3.645s-5.05,1.215-6.606,3.645 c-1.387,2.138-2.08,4.847-2.08,8.127s0.693,5.989,2.08,8.127c1.557,2.454,3.76,3.681,6.606,3.681s5.049-1.227,6.606-3.681 C344.407,201.736,345.102,199.027,345.102,195.747z"/>
    <path d="m384.484,210h-2.336v-3.54c-0.56,0.948-1.46,1.788-2.701,2.518c-1.582,0.876-3.334,1.314-5.256,1.314 c-3.065,0-5.693-1.107-7.884-3.321c-2.579-2.652-3.869-6.352-3.869-11.097c0-4.939,1.326-8.723,3.979-11.351 c2.141-2.142,4.745-3.213,7.812-3.213c4.015,0,7.056,1.802,9.125,5.402l-2.629,1.314c-1.387-2.701-3.516-4.052-6.387-4.052 c-2.848,0-5.037,1.229-6.57,3.687c-1.339,2.166-2.008,4.903-2.008,8.212c0,3.285,0.73,6.023,2.19,8.213 c1.581,2.36,3.698,3.541,6.351,3.541c2.238,0,4.003-0.742,5.293-2.227c1.168-1.338,1.752-3.018,1.752-5.037v-2.409h-6.825v-2.628 h9.964V210z"/>
    <path d="m412.589,210h-3.065l-3.14-8.979h-10.585L392.624,210h-3.03l10.038-28.616h2.92L412.589,210z M405.545,198.466l-4.344-13.286h-0.256l-0.475,1.716l-3.868,11.57H405.545z"/>
    <path d="m433.941,210h-15.403l-0.036-28.47h3.176v25.842h12.264V210z"/>
    <path d="m454.636,210h-15.403l-0.036-28.47h3.176v25.842h12.264V210z"/>
    <path d="m476.608,210h-16.681l-0.036-28.47h16.097v2.628h-12.921v9.892h11.497v2.628h-11.497v10.694h13.541V210z"/>
    <path d="m502.085,210h-3.139l-6.606-12.665h-5.84V210h-3.176v-28.47h9.563c2.603,0,4.659,0.754,6.168,2.263 c1.411,1.387,2.117,3.176,2.117,5.365c0,4.088-1.959,6.692-5.877,7.812L502.085,210z M497.961,189.268 c0-1.46-0.451-2.651-1.351-3.576c-0.998-1.022-2.409-1.533-4.234-1.533H486.5v10.512h5.985 C496.136,194.67,497.961,192.869,497.961,189.268z"/>
    <path d="m526.066,181.53l-9.453,16.717V210h-3.176v-11.753l-9.417-16.717h3.613l7.264,13.176h0.256l7.263-13.176 H526.066z"/>
   </g>
  </g>
  <use xlink:href="#text" fill="#000" stroke-width="0"/>
  <g id="text.com" fill="#000">
    <path d="m804.5 217.6q0 2.592-1.824 4.416t-4.32 1.824q-2.592 0-4.416-1.824t-1.824-4.416q0-2.496 1.824-4.32t4.416-1.824q2.496 0 4.32 1.824t1.824 4.32z" style="font-feature-settings:normal;font-variant-caps:normal;font-variant-ligatures:normal;font-variant-numeric:normal"/>
    <path d="m850.3 216.5q-6.048 6.912-15.26 6.912-8.832 0-14.11-6.048-6.048-6.72-6.048-20.06 0-13.44 5.76-20.26 5.184-6.144 14.4-6.144 8.256 0 13.63 5.952l-4.704 4.704q-3.84-3.936-8.928-3.936-11.52 0-11.52 19.68 0 19.49 11.52 19.49 6.528 0 10.56-4.992z" style="font-feature-settings:normal;font-variant-caps:normal;font-variant-ligatures:normal;font-variant-numeric:normal"/>
    <path d="m899.8 197.2q0 13.54-6.24 20.26-5.376 5.856-14.4 5.856-9.408 0-14.69-6.048-6.048-6.72-6.048-20.06 0-13.44 6.048-20.26 5.376-6.048 14.69-6.048 9.024 0 14.4 5.952 6.24 6.816 6.24 20.35zm-8.448 0q0-19.78-12.19-19.78-12.29 0-12.29 19.78 0 19.58 12.29 19.58 12.19 0 12.19-19.58z" style="font-feature-settings:normal;font-variant-caps:normal;font-variant-ligatures:normal;font-variant-numeric:normal"/>
    <path d="m980.4 222.5h-8.16v-31.97q0-12.67-9.504-12.67-7.392 0-11.62 7.584v37.06h-8.16v-31.97q0-12.67-9.408-12.67-6.816 0-11.71 6.816v37.82h-8.16v-50.88h8.16v5.088q5.184-5.856 13.34-5.856 9.024 0 13.63 7.008 5.856-7.008 15.07-7.008 7.008 0 11.42 4.128 5.088 4.8 5.088 14.02z" style="font-feature-settings:normal;font-variant-caps:normal;font-variant-ligatures:normal;font-variant-numeric:normal"/>
  </g>
</svg>
