<?xml version="1.0" encoding="UTF-8"?>
<svg version="1.1" width="1000" height="245" xmlns="http://www.w3.org/2000/svg" xmlns:xlink="http://www.w3.org/1999/xlink">
  <title>Logo of piwigo.org using white letters</title>
  <metadata  xmlns:rdf="http://www.w3.org/1999/02/22-rdf-syntax-ns#">
    <rdf:RDF xmlns:dc="http://purl.org/dc/elements/1.1/">
      <dc:format>image/svg+xml</dc:format>
      <dc:type rdf:resource="http://purl.org/dc/dcmitype/StillImage"/>
      <dc:source>https://github.com/Piwigo/Piwigo-logos</dc:source>
      <dc:creator>Jimmy</dc:creator>
      <dc:contributor>Piwigo contributors</dc:contributor>
      <dc:date>2008</dc:date>
      <dc:language>fr</dc:language>
      <dc:rights>GPLv2</dc:rights>
    </rdf:RDF>
  </metadata>
  <g id="camera" transform="scale(.5 .5) translate(1268 20)">
    <path fill="#ff7700" d="m0,70c0-11.046,8.955-20,20-20h305l10-35c1.719-7.458,7.541-13.282,15-15h245 c7.459,1.718,13.281,7.542,15,15l10,35h75c11.045,0,20,8.954,20,20v360c0,11.047-8.955,20-20,20H20c-11.045,0-20-8.953-20-20V70"/>
    <path fill="#4e4e4e" d="m382,24c0-2.762,2.238-5,5-5h170c2.762,0,5,2.238,5,5v52c0,2.762-2.238,5-5,5H387c-2.762,0-5-2.238-5-5V24"/>
    <path fill="#ffffff" d="m389.5,30c0-2.762,2.238-5,5-5h155c2.762,0,5,2.238,5,5v40c0,2.762-2.238,5-5,5h-155c-2.762,0-5-2.238-5-5 V30"/>
    <ellipse fill="#ffffff" cx="200" cy="250" rx="150" ry="150"/>
    <ellipse fill="#4e4e4e" cx="200" cy="250" rx="123" ry="123"/>
    <ellipse fill="#ffffff" cx="200" cy="250" rx="100" ry="100"/>
    <ellipse fill="#4e4e4e" cx="190" cy="260" rx="100" ry="100"/>
  </g>
  <g stroke="#000" stroke-width="4" stroke-opacity=".5">
    <path id="text" d="m526.1 181.5-9.453 16.72v11.75h-3.176v-11.75l-9.417-16.72h3.613l7.264 13.18h.256l7.263-13.18zm-23.98 28.47h-3.139l-6.606-12.66h-5.84v12.66h-3.176v-28.47h9.563c2.603 0 4.659.754 6.168 2.263 1.411 1.387 2.117 3.176 2.117 5.365 0 4.088-1.959 6.692-5.877 7.812zm-4.124-20.73c0-1.46-.451-2.651-1.351-3.576-.998-1.022-2.409-1.533-4.234-1.533h-5.876v10.51h5.985c3.651 0 5.476-1.802 5.476-5.403zm-21.35 20.73h-16.68l-.04-28.47h16.1v2.628h-12.92v9.892h11.5v2.628h-11.5v10.69h13.54zm-21.97 0h-15.4l-.04-28.47h3.176v25.84h12.26v2.628zm-20.7 0h-15.4l-.04-28.47h3.176v25.84h12.26v2.628zm-21.35 0h-3.065l-3.14-8.979h-10.58l-3.175 8.979h-3.03l10.04-28.62h2.92zm-7.044-11.53-4.344-13.29h-.256l-.475 1.716-3.868 11.57zm-21.06 11.53h-2.336v-3.54c-.56.948-1.46 1.788-2.701 2.518-1.582.876-3.334 1.314-5.256 1.314-3.065 0-5.693-1.107-7.884-3.321-2.579-2.652-3.869-6.352-3.869-11.1 0-4.939 1.326-8.723 3.979-11.35 2.141-2.142 4.745-3.213 7.812-3.213 4.015 0 7.056 1.802 9.125 5.402l-2.629 1.314c-1.387-2.701-3.516-4.052-6.387-4.052-2.848 0-5.037 1.229-6.57 3.687-1.339 2.166-2.008 4.903-2.008 8.212 0 3.285.73 6.023 2.19 8.213 1.581 2.36 3.698 3.541 6.351 3.541 2.238 0 4.003-.742 5.293-2.227 1.168-1.338 1.752-3.018 1.752-5.037v-2.409h-6.825v-2.628h9.964v14.67zm-36.1-14.24c0 4.818-1.277 8.541-3.832 11.17-2.19 2.239-4.891 3.358-8.104 3.358-3.236 0-5.949-1.119-8.139-3.358-2.58-2.604-3.869-6.326-3.869-11.17 0-4.842 1.289-8.564 3.869-11.17 2.189-2.238 4.902-3.357 8.139-3.357 3.213 0 5.913 1.119 8.104 3.357 2.554 2.604 3.832 6.327 3.832 11.17zm-3.284-.02c0-3.28-.694-5.989-2.081-8.127-1.558-2.43-3.76-3.645-6.606-3.645s-5.05 1.215-6.606 3.645c-1.387 2.138-2.08 4.847-2.08 8.127s.693 5.989 2.08 8.127c1.557 2.454 3.76 3.681 6.606 3.681s5.049-1.227 6.606-3.681c1.386-2.138 2.081-4.847 2.081-8.127zm-22.63-11.59h-8.322v25.84h-3.139v-25.84h-8.359v-2.628h19.82zm-22.16 11.61c0 4.818-1.278 8.541-3.833 11.17-2.19 2.239-4.891 3.358-8.103 3.358-3.237 0-5.95-1.119-8.14-3.358-2.58-2.604-3.869-6.326-3.869-11.17 0-4.842 1.29-8.564 3.869-11.17 2.19-2.238 4.903-3.357 8.14-3.357 3.212 0 5.913 1.119 8.103 3.357 2.556 2.604 3.833 6.327 3.833 11.17zm-3.285-.02c0-3.28-.693-5.989-2.081-8.127-1.558-2.43-3.759-3.645-6.606-3.645s-5.049 1.215-6.606 3.645c-1.387 2.138-2.081 4.847-2.081 8.127s.693 5.989 2.081 8.127c1.557 2.454 3.759 3.681 6.606 3.681s5.049-1.227 6.606-3.681c1.388-2.138 2.081-4.847 2.081-8.127zm-28.14 14.26h-3.139v-13.29h-12.88v13.29h-3.175v-28.47h3.175v12.45h12.88v-12.45h3.139zm-25.4-20.51c0 2.53-.767 4.514-2.299 5.949-1.582 1.509-3.821 2.263-6.716 2.263h-5.73v12.3h-3.139v-28.47h9.417c2.725 0 4.854.803 6.387 2.409 1.387 1.46 2.08 3.309 2.08 5.548zm-3.102 0c0-1.46-.45-2.688-1.351-3.687-1.022-1.096-2.433-1.643-4.234-1.643h-6.059v10.91h5.95c1.898 0 3.345-.547 4.343-1.643.901-.995 1.351-2.31 1.351-3.94zm-31.06 20.51h-4.015l-12.19-25.15h-.292v25.15h-2.774v-28.47h4.453l11.83 24.71h.256v-24.71h2.737zm-24.56-28.47-6.533 28.47h-3.504l-6.132-24.02h-.219l-.475 2.227-5.657 21.79h-3.541l-6.534-28.47h3.029l5.475 24.31h.219l.365-2.044 5.658-22.26h3.103l6.059 24.31h.219l.365-2.044 5.11-22.26zm-36.79 14.24c0 4.818-1.278 8.541-3.833 11.17-2.19 2.239-4.891 3.358-8.103 3.358-3.237 0-5.95-1.119-8.14-3.358-2.58-2.604-3.869-6.326-3.869-11.17 0-4.842 1.29-8.564 3.869-11.17 2.19-2.238 4.903-3.357 8.14-3.357 3.212 0 5.913 1.119 8.103 3.357 2.555 2.604 3.833 6.327 3.833 11.17zm-3.285-.02c0-3.28-.693-5.989-2.081-8.127-1.558-2.43-3.759-3.645-6.606-3.645s-5.049 1.215-6.606 3.645c-1.387 2.138-2.081 4.847-2.081 8.127s.693 5.989 2.081 8.127c1.557 2.454 3.759 3.681 6.606 3.681s5.049-1.227 6.606-3.681c1.387-2.138 2.081-4.847 2.081-8.127zm-32.92 14.26h-3.139l-6.606-12.66h-5.84v12.66h-3.176v-28.47h9.563c2.604 0 4.66.754 6.168 2.263 1.411 1.387 2.117 3.176 2.117 5.365 0 4.088-1.959 6.692-5.876 7.812zm-4.124-20.73c0-1.46-.451-2.651-1.351-3.576-.998-1.022-2.409-1.533-4.234-1.533h-5.876v10.51h5.986c3.65 0 5.475-1.802 5.475-5.403zm-22.45 10.66c0 3.626-1.071 6.352-3.212 8.176-1.752 1.46-3.967 2.19-6.643 2.19-2.726 0-4.952-.73-6.68-2.19-2.117-1.8-3.175-4.525-3.175-8.176v-18.4h3.139v18.36c0 2.773.718 4.817 2.154 6.132 1.168 1.071 2.688 1.606 4.563 1.606 1.825 0 3.309-.512 4.453-1.533 1.484-1.338 2.227-3.406 2.227-6.205v-18.36h3.176v18.4zm-26.46-4.161c0 4.818-1.278 8.541-3.833 11.17-2.19 2.239-4.891 3.358-8.103 3.358-3.237 0-5.95-1.119-8.14-3.358-2.58-2.604-3.869-6.326-3.869-11.17 0-4.842 1.29-8.564 3.869-11.17 2.19-2.238 4.903-3.357 8.14-3.357 3.212 0 5.913 1.119 8.103 3.357 2.555 2.604 3.833 6.327 3.833 11.17zm-3.286-.02c0-3.28-.693-5.989-2.081-8.127-1.558-2.43-3.759-3.645-6.606-3.645s-5.049 1.215-6.606 3.645c-1.387 2.138-2.081 4.847-2.081 8.127s.693 5.989 2.081 8.127c1.557 2.454 3.759 3.681 6.606 3.681s5.049-1.227 6.606-3.681c1.388-2.138 2.081-4.847 2.081-8.127zm-22.34-14.22-9.454 16.72v11.75h-3.175v-11.75l-9.417-16.72h3.613l7.264 13.18h.255l7.264-13.18zm592.4 9.27c0 10.89-4.561 19.06-13.68 24.51-7.728 4.561-17.92 6.841-30.59 6.841-12.8 0-23.06-2.28-30.78-6.841-9.12-5.447-13.68-13.56-13.68-24.32 0-10.26 4.114-18.12 12.35-23.56-4.055-6.08-6.08-12.28-6.08-18.62 0-7.092 2.28-13.3 6.841-18.62-6.716-6.965-10.07-15.77-10.07-26.41 0-11.14 3.64-20.24 10.92-27.27 7.282-7.029 16.62-10.54 28.02-10.54 6.965 0 13.23 1.396 18.81 4.181 2.024-4.813 4.181-8.36 6.46-10.64 4.181-4.432 10.13-7.282 17.86-8.55v14.06c-3.8 0-7.253 1.206-10.36 3.61-3.104 2.408-4.845 4.878-5.225 7.41 7.853 6.715 11.78 15.96 11.78 27.74 0 11.02-3.705 20.04-11.12 27.08-7.41 7.029-16.82 10.54-28.22 10.54-6.588 0-12.6-1.265-18.05-3.801-2.536 3.296-3.801 6.905-3.801 10.83 0 5.448 1.772 9.945 5.32 13.49 5.952-1.52 12.28-2.28 19-2.28 12.66 0 22.86 2.28 30.59 6.841 9.121 5.445 13.68 13.55 13.68 24.32zm-14.63 0c0-12.54-9.88-18.81-29.64-18.81-19.89 0-29.83 6.332-29.83 19 0 12.54 9.942 18.81 29.83 18.81 19.76 0 29.64-6.335 29.64-19zm-8.739-87.02c0-17.1-7.79-25.65-23.37-25.65-15.46 0-23.18 8.55-23.18 25.65 0 16.98 7.726 25.46 23.18 25.46 15.58 0 23.37-8.485 23.37-25.46zm-122.4 64.22h-39.52v-12.16h11.21v-88.35h16.15v88.35h12.16v12.16zm-10.07-128.1c0 2.787-1.015 5.195-3.04 7.22-2.027 2.027-4.436 3.04-7.22 3.04-2.788 0-5.163-1.013-7.125-3.04-1.966-2.024-2.945-4.433-2.945-7.22 0-2.785.979-5.192 2.945-7.221 1.962-2.024 4.337-3.04 7.125-3.04 2.912 0 5.35.983 7.315 2.945 1.963 1.966 2.945 4.403 2.945 7.316zm-82.84 27.36-30.02 100.7h-15.58l-21.47-75.24h-.76l-3.42 13.3-18.05 61.94h-15.39l-30.78-100.7h16.53l21.66 81.32h.57l2.85-12.54 18.81-68.78h15.2l21.66 81.32h.57l2.85-12.54 18.81-68.78zm-189 100.7h-39.52v-12.16h11.21v-88.35h16.15v88.35h12.16zm-10.07-128.1c0 2.787-1.015 5.195-3.04 7.22-2.027 2.027-4.435 3.04-7.22 3.04-2.788 0-5.163-1.013-7.125-3.04-1.965-2.024-2.945-4.433-2.945-7.22 0-2.785.979-5.192 2.945-7.221 1.962-2.024 4.337-3.04 7.125-3.04 2.912 0 5.35.983 7.315 2.945 1.962 1.966 2.945 4.403 2.945 7.316zm-82.27 21.28c0 13.18-3.99 23.5-11.97 30.97-8.235 7.854-19.89 11.78-34.96 11.78h-29.83v64.03h-16.34v-148.2h49.02c14.18 0 25.27 4.181 33.25 12.54 7.22 7.6 10.83 17.23 10.83 28.88zm-16.15 0c0-7.6-2.345-13.99-7.03-19.19-5.32-5.7-12.67-8.55-22.04-8.55h-31.54v56.81h30.97c9.88 0 17.42-2.85 22.61-8.55 4.685-5.193 7.03-12.03 7.03-20.52z"/>
  </g>
  <use xlink:href="#text" fill="#fff" stroke="#fff"/>
  <g id="org" fill="#fff">
    <path d="m822.859,198.155c0,1.71-0.602,3.167-1.805,4.37c-1.203,1.202-2.629,1.805-4.275,1.805 c-1.709,0-3.167-0.603-4.369-1.805c-1.204-1.203-1.805-2.66-1.805-4.37c0-1.646,0.601-3.071,1.805-4.275 c1.202-1.202,2.66-1.805,4.369-1.805c1.646,0,3.072,0.603,4.275,1.805C822.258,195.084,822.859,196.509,822.859,198.155z"/>
    <path d="m874.159,177.92c0,8.93-2.059,15.612-6.175,20.045c-3.548,3.864-8.298,5.795-14.25,5.795 c-6.207,0-11.053-1.995-14.535-5.984c-3.99-4.433-5.984-11.052-5.984-19.855c0-8.866,1.994-15.547,5.984-20.045 c3.547-3.99,8.391-5.985,14.535-5.985c5.952,0,10.702,1.964,14.25,5.891C872.101,162.277,874.159,168.99,874.159,177.92z M865.799,177.92c0-13.046-4.021-19.57-12.064-19.57c-8.107,0-12.16,6.524-12.16,19.57c0,12.92,4.053,19.38,12.16,19.38 C861.777,197.3,865.799,190.84,865.799,177.92z"/>
    <path d="m917.099,154.55l-3.42,5.891c-2.218-1.076-4.37-1.615-6.46-1.615c-3.863,0-7.125,1.964-9.785,5.89v32.205 h7.125V203h-20.045v-6.08h4.846v-44.27h8.074v4.085c2.977-3.23,6.491-4.846,10.545-4.846 C911.271,151.89,914.311,152.777,917.099,154.55z"/>
    <path d="m967.639,214.4c0,5.445-2.281,9.531-6.841,12.255c-3.864,2.279-8.962,3.42-15.295,3.42 c-6.397,0-11.528-1.141-15.39-3.42c-4.561-2.724-6.84-6.778-6.84-12.16c0-5.13,2.057-9.058,6.174-11.78 c-2.027-3.04-3.039-6.143-3.039-9.31c0-3.547,1.14-6.65,3.42-9.311c-3.357-3.482-5.035-7.885-5.035-13.205 c0-5.572,1.82-10.117,5.463-13.632c3.641-3.516,8.313-5.272,14.012-5.272c3.482,0,6.617,0.697,9.405,2.09 c1.013-2.406,2.091-4.181,3.229-5.32c2.091-2.216,5.066-3.641,8.931-4.274v7.029c-1.899,0-3.626,0.603-5.178,1.806 s-2.423,2.438-2.612,3.704c3.926,3.358,5.891,7.98,5.891,13.87c0,5.511-1.854,10.022-5.559,13.538 c-3.705,3.515-8.407,5.272-14.107,5.272c-3.293,0-6.303-0.633-9.024-1.9c-1.269,1.647-1.9,3.453-1.9,5.415 c0,2.724,0.886,4.973,2.66,6.745c2.976-0.76,6.143-1.14,9.5-1.14c6.333,0,11.431,1.14,15.295,3.42 C965.357,204.962,967.639,209.017,967.639,214.4z M960.322,214.4c0-6.271-4.939-9.405-14.819-9.405 c-9.944,0-14.915,3.166-14.915,9.5c0,6.27,4.971,9.405,14.915,9.405C955.383,223.9,960.322,220.732,960.322,214.4z M955.953,170.89 c0-8.55-3.895-12.824-11.686-12.824c-7.727,0-11.59,4.274-11.59,12.824c0,8.488,3.863,12.73,11.59,12.73 C952.059,183.62,955.953,179.378,955.953,170.89z"/>
  </g>
</svg>
